<?xml version="1.0" encoding="UTF-8" standalone="no"?>
<!DOCTYPE svg PUBLIC "-//W3C//DTD SVG 1.1//EN"
 "http://www.w3.org/Graphics/SVG/1.1/DTD/svg11.dtd">
<!-- Generated by graphviz version 13.1.0 (20250701.0955)
 -->
<!-- Pages: 1 -->
<svg width="1310pt" height="260pt"
 viewBox="0.00 0.00 1310.00 260.00" xmlns="http://www.w3.org/2000/svg" xmlns:xlink="http://www.w3.org/1999/xlink">
<g id="graph0" class="graph" transform="scale(1 1) rotate(0) translate(4 256)">
<polygon fill="white" stroke="none" points="-4,4 -4,-256 1305.75,-256 1305.75,4 -4,4"/>
<!-- &#45;6654816920334063139 -->
<g id="node1" class="node">
<title>&#45;6654816920334063139</title>
<polygon fill="none" stroke="black" points="718.88,-252 582.88,-252 582.88,-216 718.88,-216 718.88,-252"/>
<text xml:space="preserve" text-anchor="middle" x="650.88" y="-226.62" font-family="Helvetica,sans-Serif" font-size="20.00">Drop(Concat)</text>
</g>
<!-- 3687259464331586829 -->
<g id="node2" class="node">
<title>3687259464331586829</title>
<polygon fill="none" stroke="black" points="1016.25,-180 285.5,-180 285.5,-144 1016.25,-144 1016.25,-180"/>
<text xml:space="preserve" text-anchor="middle" x="650.88" y="-154.62" font-family="Helvetica,sans-Serif" font-size="20.00">Concat(ArrowStringConversion, ArrowStringConversion, ArrowStringConversion)</text>
</g>
<!-- 3687259464331586829&#45;&gt;&#45;6654816920334063139 -->
<g id="edge1" class="edge">
<title>3687259464331586829&#45;&gt;&#45;6654816920334063139</title>
<path fill="none" stroke="black" d="M650.88,-180.3C650.88,-187.59 650.88,-196.27 650.88,-204.46"/>
<polygon fill="black" stroke="black" points="647.38,-204.38 650.88,-214.38 654.38,-204.38 647.38,-204.38"/>
</g>
<!-- &#45;6073588320851279258 -->
<g id="node3" class="node">
<title>&#45;6073588320851279258</title>
<polygon fill="none" stroke="black" points="421.75,-108 0,-108 0,-72 421.75,-72 421.75,-108"/>
<text xml:space="preserve" text-anchor="middle" x="210.88" y="-82.62" font-family="Helvetica,sans-Serif" font-size="20.00">ArrowStringConversion(FromMapProjectable)</text>
</g>
<!-- &#45;6073588320851279258&#45;&gt;3687259464331586829 -->
<g id="edge4" class="edge">
<title>&#45;6073588320851279258&#45;&gt;3687259464331586829</title>
<path fill="none" stroke="black" d="M320.77,-108.48C384.41,-118.61 464.62,-131.37 530.04,-141.78"/>
<polygon fill="black" stroke="black" points="529.32,-145.21 539.74,-143.32 530.42,-138.29 529.32,-145.21"/>
</g>
<!-- 6620239677298238436 -->
<g id="node4" class="node">
<title>6620239677298238436</title>
<polygon fill="none" stroke="black" points="311.88,-36 109.88,-36 109.88,0 311.88,0 311.88,-36"/>
<text xml:space="preserve" text-anchor="middle" x="210.88" y="-10.62" font-family="Helvetica,sans-Serif" font-size="20.00">FromMapProjectable</text>
</g>
<!-- 6620239677298238436&#45;&gt;&#45;6073588320851279258 -->
<g id="edge5" class="edge">
<title>6620239677298238436&#45;&gt;&#45;6073588320851279258</title>
<path fill="none" stroke="black" d="M210.88,-36.3C210.88,-43.59 210.88,-52.27 210.88,-60.46"/>
<polygon fill="black" stroke="black" points="207.38,-60.38 210.88,-70.38 214.38,-60.38 207.38,-60.38"/>
</g>
<!-- 293807649974691388 -->
<g id="node5" class="node">
<title>293807649974691388</title>
<polygon fill="none" stroke="black" points="861.75,-108 440,-108 440,-72 861.75,-72 861.75,-108"/>
<text xml:space="preserve" text-anchor="middle" x="650.88" y="-82.62" font-family="Helvetica,sans-Serif" font-size="20.00">ArrowStringConversion(FromMapProjectable)</text>
</g>
<!-- 293807649974691388&#45;&gt;3687259464331586829 -->
<g id="edge3" class="edge">
<title>293807649974691388&#45;&gt;3687259464331586829</title>
<path fill="none" stroke="black" d="M650.88,-108.3C650.88,-115.59 650.88,-124.27 650.88,-132.46"/>
<polygon fill="black" stroke="black" points="647.38,-132.38 650.88,-142.38 654.38,-132.38 647.38,-132.38"/>
</g>
<!-- 2413177244805060893 -->
<g id="node6" class="node">
<title>2413177244805060893</title>
<polygon fill="none" stroke="black" points="751.88,-36 549.88,-36 549.88,0 751.88,0 751.88,-36"/>
<text xml:space="preserve" text-anchor="middle" x="650.88" y="-10.62" font-family="Helvetica,sans-Serif" font-size="20.00">FromMapProjectable</text>
</g>
<!-- 2413177244805060893&#45;&gt;293807649974691388 -->
<g id="edge6" class="edge">
<title>2413177244805060893&#45;&gt;293807649974691388</title>
<path fill="none" stroke="black" d="M650.88,-36.3C650.88,-43.59 650.88,-52.27 650.88,-60.46"/>
<polygon fill="black" stroke="black" points="647.38,-60.38 650.88,-70.38 654.38,-60.38 647.38,-60.38"/>
</g>
<!-- 8877070052431845552 -->
<g id="node7" class="node">
<title>8877070052431845552</title>
<polygon fill="none" stroke="black" points="1301.75,-108 880,-108 880,-72 1301.75,-72 1301.75,-108"/>
<text xml:space="preserve" text-anchor="middle" x="1090.88" y="-82.62" font-family="Helvetica,sans-Serif" font-size="20.00">ArrowStringConversion(FromMapProjectable)</text>
</g>
<!-- 8877070052431845552&#45;&gt;3687259464331586829 -->
<g id="edge2" class="edge">
<title>8877070052431845552&#45;&gt;3687259464331586829</title>
<path fill="none" stroke="black" d="M980.98,-108.48C917.34,-118.61 837.13,-131.37 771.71,-141.78"/>
<polygon fill="black" stroke="black" points="771.33,-138.29 762.01,-143.32 772.43,-145.21 771.33,-138.29"/>
</g>
<!-- &#45;4005244990709426605 -->
<g id="node8" class="node">
<title>&#45;4005244990709426605</title>
<polygon fill="none" stroke="black" points="1191.88,-36 989.88,-36 989.88,0 1191.88,0 1191.88,-36"/>
<text xml:space="preserve" text-anchor="middle" x="1090.88" y="-10.62" font-family="Helvetica,sans-Serif" font-size="20.00">FromMapProjectable</text>
</g>
<!-- &#45;4005244990709426605&#45;&gt;8877070052431845552 -->
<g id="edge7" class="edge">
<title>&#45;4005244990709426605&#45;&gt;8877070052431845552</title>
<path fill="none" stroke="black" d="M1090.88,-36.3C1090.88,-43.59 1090.88,-52.27 1090.88,-60.46"/>
<polygon fill="black" stroke="black" points="1087.38,-60.38 1090.88,-70.38 1094.38,-60.38 1087.38,-60.38"/>
</g>
</g>
</svg>
